<svg>
		<defs>
			<symbol id="viber" xmlns="http://www.w3.org/2000/svg" viewBox="0 0 504 504"><path d="M377.6 0h-251.6c-69.2 0-126 56.8-126 126.4v251.6c0 69.2 56.8 126 126 126h251.6c69.6 0 126.4-56.8 126.4-126.4v-251.2c0-69.6-56.8-126.4-126.4-126.4zm-139.2 103.6c.8-12.4 12.4-8 18.4-8.8 75.2 2.4 140 70 139.2 142.8 0 7.2 2.4 17.6-8.4 17.6-10.4 0-7.6-10.8-8.8-18-10-77.2-46-113.6-124.4-125.6-6.4-.8-16.4.4-16-8zm112.4 137.2c-12 1.6-9.6-8.8-10.8-15.6-8-47.2-24.8-64.4-73.2-74.8-7.2-1.6-18.4-.4-16.4-11.2 1.6-10.4 11.6-6.8 19.2-6 48.4 5.6 88 46.8 87.6 92-.8 4.8 2.4 14-6.4 15.6zm-30-24.8c0 6.4-.8 12.4-8 13.2-5.2.8-8.4-3.6-9.2-8.8-2-19.2-12.4-30.8-32.4-34-6-.8-11.6-2.8-8.8-10.8 2-5.2 6.8-6 12-6 21.6-.4 46.4 24.8 46.4 46.4zm76 147.6c-8.4 22.8-36.8 46-61.2 45.6-3.6-.8-10.4-2-16.4-4.4-107.2-45.2-185.2-119.6-229.2-226-14.8-35.6.8-66 38-78 6.8-2.4 13.2-2.4 20 0 16 5.6 56.4 60.4 57.2 76.4.8 12.4-8 19.2-16.4 24.8-16.4 10.8-16.4 24.4-9.2 40 15.6 34.4 42.4 58.4 77.2 73.6 12.4 5.6 24.8 5.2 33.2-7.6 15.2-22.8 34-21.6 54.4-7.6 10.4 7.2 20.8 14 30.4 21.6 13.2 10.8 30 19.6 22 41.6z"/></symbol>
			<symbol id="bathtub" xmlns="http://www.w3.org/2000/svg" viewBox="0 0 60 60"><path d="M59 57.999h-10v-2.246c2.487-.633 4.533-2.536 5.241-5.087l3.552-12.787c1.268-.35 2.207-1.502 2.207-2.88 0-1.654-1.346-3-3-3v-29.583c0-.979-.585-1.855-1.49-2.23-.905-.373-1.938-.169-2.631.523l-2.59 2.59c-2.258-1.722-5.495-1.575-7.558.487-.391.391-.391 1.023 0 1.414l7.071 7.071c.188.188.442.293.707.293s.52-.105.707-.293c2.062-2.063 2.209-5.3.486-7.558l2.59-2.59c.17-.17.357-.128.452-.09.096.04.256.142.256.383v29.583h-31v-2h-13v2h-8c-1.654 0-3 1.346-3 3 0 1.378.939 2.53 2.207 2.88l3.552 12.787c.708 2.551 2.754 4.454 5.241 5.087v2.246h-10c-.552 0-1 .447-1 1s.448 1 1 1h58c.552 0 1-.447 1-1s-.448-1-1-1zm-8.586-47.945l-5.467-5.466c1.437-.818 3.3-.612 4.524.611l.331.331c1.223 1.225 1.427 3.088.612 4.524zm6.586 23.945c.551 0 1 .448 1 1s-.449 1-1 1h-33v-2h33zm-35-2v11h-9v-11h9zm-9 13h9v2h-9v-2zm-10-11h8v2h-8c-.551 0-1-.448-1-1s.449-1 1-1zm4.686 16.132l-3.37-12.132h6.684v11h13v-11h31.685l-3.37 12.132c-.633 2.277-2.726 3.868-5.089 3.868h-34.452c-2.363 0-4.456-1.591-5.088-3.868zm34.696 5.868l1 2h-26.764l1-2h24.764zm-29.382 2v-2h2.382l-1 2h-1.382zm32.618 0l-1-2h2.382v2h-1.382zM47 13.999c.552 0 1-.447 1-1v-1c0-.553-.448-1-1-1s-1 .447-1 1v1c0 .552.448 1 1 1zM46 20.999c0 .553.448 1 1 1s1-.447 1-1v-1c0-.553-.448-1-1-1s-1 .447-1 1v1zM46 24.999c0 .553.448 1 1 1s1-.447 1-1v-1c0-.553-.448-1-1-1s-1 .447-1 1v1zM46 28.999c0 .553.448 1 1 1s1-.447 1-1v-1c0-.553-.448-1-1-1s-1 .447-1 1v1zM46 16.999c0 .553.448 1 1 1s1-.447 1-1v-1c0-.553-.448-1-1-1s-1 .447-1 1v1zM37.464 12.534c.256 0 .512-.098.707-.293l.707-.707c.391-.391.391-1.023 0-1.414s-1.023-.391-1.414 0l-.707.707c-.391.391-.391 1.023 0 1.414.196.195.451.293.707.293zM34.636 15.363c.256 0 .512-.098.707-.293l.707-.707c.391-.391.391-1.023 0-1.414s-1.023-.391-1.414 0l-.707.707c-.391.391-.391 1.023 0 1.414.196.195.451.293.707.293zM31.808 18.191c.256 0 .512-.098.707-.293l.707-.707c.391-.391.391-1.023 0-1.414s-1.023-.391-1.414 0l-.707.707c-.391.391-.391 1.023 0 1.414.195.195.451.293.707.293zM40.293 9.706c.256 0 .512-.098.707-.293l.707-.707c.391-.391.391-1.023 0-1.414s-1.023-.391-1.414 0l-.707.707c-.391.391-.391 1.023 0 1.414.195.195.451.293.707.293zM26.151 23.848c.256 0 .512-.098.707-.293l.707-.707c.391-.391.391-1.023 0-1.414s-1.023-.391-1.414 0l-.707.707c-.391.391-.391 1.023 0 1.414.195.196.451.293.707.293zM20.494 29.505c.256 0 .512-.098.707-.293l.707-.707c.391-.391.391-1.023 0-1.414s-1.023-.391-1.414 0l-.707.707c-.391.391-.391 1.023 0 1.414.195.195.451.293.707.293zM28.979 21.019c.256 0 .512-.098.707-.293l.708-.707c.391-.39.391-1.023 0-1.414s-1.024-.391-1.415 0l-.708.707c-.391.39-.391 1.023 0 1.414.196.196.452.293.708.293zM23.322 26.676c.256 0 .512-.098.707-.293l.707-.707c.391-.391.391-1.023 0-1.414s-1.023-.391-1.414 0l-.707.707c-.391.391-.391 1.023 0 1.414.196.196.451.293.707.293zM39.144 19.74c.154.086.32.126.484.126.352 0 .692-.186.875-.515l.485-.874c.269-.482.094-1.092-.389-1.359-.483-.27-1.091-.094-1.359.389l-.485.874c-.268.482-.094 1.091.389 1.359zM41.184 14.009l-.486.874c-.269.483-.095 1.092.388 1.36.154.086.32.126.485.126.352 0 .692-.186.875-.514l.486-.874c.269-.483.095-1.092-.388-1.36-.483-.27-1.093-.094-1.36.388zM43.028 12.747c.154.086.32.126.485.126.352 0 .692-.186.875-.514l.486-.874c.269-.483.095-1.092-.388-1.36-.483-.27-1.092-.094-1.36.388l-.486.874c-.268.483-.095 1.091.388 1.36zM36.618 26.344l.485-.874c.269-.482.094-1.092-.389-1.359-.484-.27-1.092-.094-1.359.389l-.485.874c-.269.482-.094 1.092.389 1.359.154.086.32.126.484.126.352 0 .693-.185.875-.515zM38.561 22.849l.486-.874c.269-.483.095-1.092-.388-1.36-.482-.271-1.092-.095-1.36.388l-.486.874c-.269.483-.095 1.092.388 1.36.154.086.32.126.485.126.351 0 .692-.186.875-.514zM34.773 27.608c-.483-.27-1.092-.094-1.36.389l-.287.517c-.269.482-.095 1.091.388 1.359.154.086.321.126.485.126.352 0 .692-.186.875-.515l.287-.517c.269-.482.095-1.09-.388-1.359z"/></symbol>
			<symbol id="bed" xmlns="http://www.w3.org/2000/svg" viewBox="0 0 480 480"><path d="M472 272h-8v-24c-.021-15.886-9.44-30.254-24-36.608v-123.392c-.002-3.18-1.886-6.056-4.8-7.328 3.121-5.002 4.783-10.776 4.8-16.672 0-17.673-14.327-32-32-32-17.673 0-32 14.327-32 32 .033 5.634 1.569 11.157 4.448 16h-280.896c2.879-4.843 4.415-10.366 4.448-16 0-17.673-14.327-32-32-32s-32 14.327-32 32c.017 5.896 1.679 11.67 4.8 16.672-2.914 1.272-4.798 4.148-4.8 7.328v123.392c-14.56 6.354-23.979 20.722-24 36.608v24h-8c-4.418 0-8 3.582-8 8v112c0 4.418 3.582 8 8 8h8v40c0 4.418 3.582 8 8 8h32c4.418 0 8-3.582 8-8v-40h352v40c0 4.418 3.582 8 8 8h32c4.418 0 8-3.582 8-8v-40h8c4.418 0 8-3.582 8-8v-112c0-4.418-3.582-8-8-8zm-64-224c8.837 0 16 7.163 16 16s-7.163 16-16 16-16-7.163-16-16 7.163-16 16-16zm-336 0c8.837 0 16 7.163 16 16s-7.163 16-16 16-16-7.163-16-16 7.163-16 16-16zm-16 48h368v112h-32.208c5.294-6.883 8.179-15.316 8.208-24v-16c-.026-22.08-17.92-39.974-40-40h-64c-22.08.026-39.974 17.92-40 40v16c.029 8.684 2.914 17.117 8.208 24h-48.416c5.294-6.883 8.179-15.316 8.208-24v-16c-.026-22.08-17.92-39.974-40-40h-64c-22.08.026-39.974 17.92-40 40v16c.029 8.684 2.914 17.117 8.208 24h-32.208v-112zm328 72v16c0 13.255-10.745 24-24 24h-64c-13.255 0-24-10.745-24-24v-16c0-13.255 10.745-24 24-24h64c13.255 0 24 10.745 24 24zm-176 0v16c0 13.255-10.745 24-24 24h-64c-13.255 0-24-10.745-24-24v-16c0-13.255 10.745-24 24-24h64c13.255 0 24 10.745 24 24zm-176 80c0-13.255 10.745-24 24-24h368c13.255 0 24 10.745 24 24v24h-416v-24zm16 184h-16v-32h16v32zm400 0h-16v-32h16v32zm16-48h-448v-96h448v96zM72 352h-32c-4.418 0-8 3.582-8 8s3.582 8 8 8h32c4.418 0 8-3.582 8-8s-3.582-8-8-8zM440 352h-336c-4.418 0-8 3.582-8 8s3.582 8 8 8h336c4.418 0 8-3.582 8-8s-3.582-8-8-8z"/></symbol>
			<symbol id="viber-2" xmlns="http://www.w3.org/2000/svg" viewBox="0 0 322 322"><g><path d="M275.445 135.123c.387-45.398-38.279-87.016-86.192-92.771-.953-.113-1.991-.285-3.09-.467-2.372-.393-4.825-.797-7.3-.797-9.82 0-12.445 6.898-13.136 11.012-.672 4-.031 7.359 1.902 9.988 3.252 4.422 8.974 5.207 13.57 5.836 1.347.186 2.618.359 3.682.598 43.048 9.619 57.543 24.742 64.627 67.424.173 1.043.251 2.328.334 3.691.309 5.102.953 15.717 12.365 15.717h.001c.95 0 1.971-.082 3.034-.244 10.627-1.615 10.294-11.318 10.134-15.98-.045-1.313-.088-2.555.023-3.381.03-.208.045-.417.046-.626z"/><path d="M176.077 25.688c1.275.092 2.482.18 3.487.334 70.689 10.871 103.198 44.363 112.207 115.605.153 1.211.177 2.688.202 4.252.09 5.566.275 17.145 12.71 17.385l.386.004c3.9 0 7.002-1.176 9.221-3.498 3.871-4.049 3.601-10.064 3.383-14.898-.053-1.186-.104-2.303-.091-3.281.899-72.862-62.171-138.933-134.968-141.39-.302-.01-.59.006-.881.047-.143.021-.408.047-.862.047-.726 0-1.619-.063-2.566-.127-1.145-.078-2.443-.168-3.759-.168-11.593 0-13.797 8.24-14.079 13.152-.65 11.352 10.332 12.151 15.61 12.536z"/><path d="M288.36 233.703c-1.503-1.148-3.057-2.336-4.512-3.508-7.718-6.211-15.929-11.936-23.87-17.473-1.648-1.148-3.296-2.297-4.938-3.449-10.172-7.145-19.317-10.617-27.957-10.617-11.637 0-21.783 6.43-30.157 19.109-3.71 5.621-8.211 8.354-13.758 8.354-3.28 0-7.007-.936-11.076-2.783-32.833-14.889-56.278-37.717-69.685-67.85-6.481-14.564-4.38-24.084 7.026-31.832 6.477-4.396 18.533-12.58 17.679-28.252-.967-17.797-40.235-71.346-56.78-77.428-7.005-2.576-14.365-2.6-21.915-.06-19.02 6.394-32.669 17.623-39.475 32.471-6.577 14.347-6.28 31.193.859 48.717 20.638 50.666 49.654 94.84 86.245 131.293 35.816 35.684 79.837 64.914 130.839 86.875 4.597 1.978 9.419 3.057 12.94 3.844 1.2.27 2.236.5 2.991.707.415.113.843.174 1.272.178l.403.002h.002c23.988 0 52.791-21.92 61.637-46.91 7.75-21.882-6.4-32.698-17.77-41.388z"/><path d="M186.687 83.564c-4.107.104-12.654.316-15.653 9.021-1.403 4.068-1.235 7.6.5 10.498 2.546 4.252 7.424 5.555 11.861 6.27 16.091 2.582 24.355 11.48 26.008 28 .768 7.703 5.955 13.082 12.615 13.082h.001c.492 0 .995-.029 1.496-.09 8.01-.953 11.893-6.838 11.542-17.49.128-11.117-5.69-23.738-15.585-33.791-9.929-10.084-21.898-15.763-32.785-15.5z"/></g></symbol>
			<symbol id="user" xmlns="http://www.w3.org/2000/svg" viewBox="0 0 409.165 409.164"><path d="M204.583 216.671c50.664 0 91.74-48.075 91.74-107.378 0-82.237-41.074-107.377-91.74-107.377-50.668 0-91.74 25.14-91.74 107.377.001 59.303 41.073 107.378 91.74 107.378zM407.164 374.717l-46.284-104.263c-2.117-4.771-5.836-8.728-10.465-11.138l-71.83-37.392c-1.584-.823-3.502-.663-4.926.415-20.316 15.366-44.203 23.488-69.076 23.488-24.877 0-48.762-8.122-69.078-23.488-1.428-1.078-3.346-1.238-4.93-.415l-71.825 37.392c-4.631 2.41-8.346 6.365-10.465 11.138l-46.284 104.263c-3.191 7.188-2.537 15.412 1.75 22.005 4.285 6.592 11.537 10.526 19.4 10.526h362.861c7.863 0 15.117-3.936 19.402-10.527 4.285-6.592 4.941-14.819 1.75-22.004z"/>
			</symbol><symbol id="chocolate" xmlns="http://www.w3.org/2000/svg" viewBox="0 0 49.284 49.284"><path d="M36.591 39.606c8.158-.328 11.784-4.041 11.784-8.585 0-3.947-2.739-7.268-8.806-8.288.027-1.468.029-2.884.029-4.206h-38.689c0 8.644.01 21.2 7.776 27.197-4.713.361-7.776.935-7.776 1.581 0 1.094 8.661 1.979 19.345 1.979s19.344-.885 19.344-1.979c0-.646-3.063-1.221-7.775-1.581 2.108-1.627 3.649-3.733 4.768-6.118zm2.834-13.114c3.404.789 4.012 2.458 3.973 4.619-.043 2.454-.754 4.115-5.402 4.687.841-2.987 1.239-6.194 1.429-9.306zm-33.846-4.965h6.048c-2.711 8 1.863 20.658 1.862 20.658-9.888-7.579-7.91-20.658-7.91-20.658zM23.419 13.313c.769-6.968 16.153-3.482 12.947-12.528-.49-1.383-2.705-.787-2.21.609 1.406 3.966-3.936 4.449-6.656 5.358-3.267 1.092-5.971 2.918-6.373 6.561-.162 1.468 2.132 1.452 2.292 0zM34.339 8.437c-3 .707-5.742 1.992-6.677 5.146-.421 1.421 1.791 2.023 2.21.609 1.032-3.483 5.607-3.541 8.528-4.389 3.137-.911 4.932-3.084 4.501-6.42-.188-1.445-2.48-1.463-2.292 0 .521 4.034-3.191 4.327-6.27 5.054z"/></symbol>
			<symbol id="bowl" xmlns="http://www.w3.org/2000/svg" viewBox="0 0 252.76998 152.24234"><defs><clipPath/></defs><g><path d="M169.831 33.185c0 1.843-1.65 3.335-3.689 3.335-2.037 0-3.686-1.492-3.686-3.335v-14.964c0-1.843 1.65-3.335 3.686-3.335 2.039 0 3.689 1.492 3.689 3.335zm72.306-33.185h-87c-5.871 0-10.635 5.111-10.635 11.416v39.591h108.265v-39.591c.002-6.305-4.759-11.416-10.63-11.416zm-79.681 81.045c0-2.438 1.65-4.415 3.686-4.415 2.039 0 3.689 1.978 3.689 4.415v19.815c0 2.44-1.65 4.413-3.689 4.413-2.037 0-3.686-1.973-3.686-4.413zm-17.951 61.367c0 5.431 4.764 9.83 10.635 9.83h87.002c5.867 0 10.628-4.399 10.628-9.83v-84.003h-108.265z"/><path d="M108.322 81.973h-104.259c-2.243 0-4.063 1.846-4.063 4.122v61.86c0 2.274 1.821 4.12 4.063 4.12h104.259c2.243 0 4.063-1.846 4.063-4.12v-61.86c0-2.277-1.821-4.122-4.063-4.122zm-17.949 15.519h6.346v6.442h-6.346zm0 8.012h6.346v6.442h-6.346zm0 8.001h6.346v6.445h-6.346zm-8.112-16.013h6.351v6.442h-6.351zm0 8.012h6.351v6.442h-6.351zm-7.11 38.327h-7.025c1.111-.636 1.893-2.137 1.893-3.877h-13.207c6.753-4.186 11.179-11.067 11.179-18.858h-52.816c0 7.791 4.423 14.672 11.176 18.858h-13.204c0 1.744.779 3.24 1.883 3.877h-6.905v-53.612h67.027zm7.11-30.325h6.351v6.445h-6.351zm11.116 28.203c-3.834 0-6.94-3.151-6.94-7.038 0-3.892 3.107-7.043 6.94-7.043 3.829 0 6.935 3.151 6.935 7.043 0 3.887-3.107 7.038-6.935 7.038zm11.448-21.758h-6.346v-6.445h6.346zm0-8.004h-6.346v-6.442h6.346zm0-8.012h-6.346v-6.442h6.346z"/></g></symbol>
			<symbol id="water" xmlns="http://www.w3.org/2000/svg" viewBox="0 0 512 512"><path d="M362.591 45.547l-47.869 7.959c-33.221 5.524-63.369 21.03-87.184 44.845l-1.505 1.505 186.112 186.11 1.505-1.505c23.813-23.814 39.32-53.962 44.845-87.183l7.959-47.869-103.863-103.862zM503.567 70.749l-62.315-62.315c-11.244-11.245-29.539-11.245-40.783 0l-15.905 15.903 103.099 103.099 15.905-15.905c11.243-11.244 11.243-29.539-.001-40.782zM63.647 262.87c-2.338 1.929-4.588 3.961-6.729 6.102l-41.651 41.65c-20.356 20.356-20.356 53.477 0 73.833l112.277 112.277c10.179 10.179 23.548 15.268 36.918 15.268 13.369 0 26.739-5.089 36.917-15.267l41.651-41.651c2.14-2.14 4.172-4.391 6.101-6.729l-185.484-185.483zM206.529 123.533c-6.26 10.508-10.466 22.155-12.367 34.509-2.136 13.884-8.515 26.472-18.447 36.405l-24.926 24.926c-7.02 7.019-15.693 12.434-25.082 15.656l-32.031 10.995c-.909.313-1.813.64-2.713.98l174.03 174.03c.34-.9.668-1.804.98-2.712l10.995-32.031c3.223-9.389 8.637-18.062 15.656-25.082l24.926-24.926c9.933-9.933 22.521-16.312 36.403-18.447 12.354-1.9 24.002-6.107 34.51-12.367l-181.934-181.936z"/></symbol>
			<symbol id="tv" xmlns="http://www.w3.org/2000/svg" viewBox="0 0 60 60"><path d="M59 6h-58c-.553 0-1 .447-1 1v38c0 .553.447 1 1 1h26v3h-5v5h16v-5h-5v-3h26c.553 0 1-.447 1-1v-38c0-.553-.447-1-1-1zm-39.812 27.936c.354-.334.735-.614 1.132-.83l4.685-2.72.58-.289c.357-.17 1.155-.549 1.416-.803v-1.327c-.966-.623-2.981-2.122-3.647-4.138-.561-.392-1.354-1.076-1.354-2.04v-2.245c0-.413.162-.816.481-1.197.237-.284.519-.743.519-1.32v-1.027c.063-2.438 1.817-7 8-7s7.937 4.562 8 6.974v1.054c0 .576.282 1.036.52 1.32.318.38.48.783.48 1.196v2.245c0 1.079-.885 1.929-1.846 2.369-.443 1.134-1.137 2.189-1.83 3.171-.19.269-.508.502-1.185.968l-.14.096v1.302l.367.083c.342.072.73.153 1.08.328l.096.055 4.621 2.989c.395.204.772.464 1.125.775l.086.075h-23.255l.069-.064zm-14.188 7.064v-4h7v4h-7zm50 0h-41v-4h41v4zm0-25h-6v-6h6v6z"/></symbol>
			<symbol id="wifi-big" xmlns="http://www.w3.org/2000/svg" viewBox="0 0 310.249 310.249"><path d="M185.475 246.104c0 16.759-13.562 30.321-30.322 30.321-16.762 0-30.326-13.562-30.326-30.321 0-16.765 13.564-30.327 30.326-30.327 16.759 0 30.322 13.562 30.322 30.327zm-100.128-58.376l23.249 19.494c23.188-27.694 69.98-27.694 93.138.023l23.279-19.43c-17.385-20.782-42.853-32.69-69.861-32.69-27.01 0-52.448 11.876-69.805 32.603zm-42.582-43.441l22.477 20.376c22.951-25.351 55.704-39.861 89.911-39.861 34.178 0 66.931 14.51 89.884 39.801l22.448-20.376c-28.702-31.629-69.633-49.751-112.332-49.751-42.735-.001-83.693 18.182-112.388 49.811zm-42.765-43.087l22.15 20.701c34.293-36.697 82.775-57.753 133.002-57.753 50.97 0 98.172 20.496 132.942 57.692l22.154-20.733c-39.983-42.76-96.52-67.283-155.097-67.283-58.608 0-115.142 24.551-155.151 67.376z"/></symbol>
			<symbol id="wiping" xmlns="http://www.w3.org/2000/svg" viewBox="0 0 732.438 732.438"><path d="M662.688 13.546l-171.341 332.208c.983.276 1.964.569 2.938.883 7.235 2.33 14.028 5.17 20.353 8.499 7.646 4.025 14.597 8.771 20.807 14.198l171.681-332.868c6.329-12.271 1.513-27.35-10.759-33.679-12.272-6.33-27.349-1.513-33.679 10.759zM96.597 629.659c27.24 24.567 60.687 45.974 99.412 63.623 65.396 29.808 122.948 38.61 125.365 38.971l.201.028c.763.104 1.53.156 2.299.156l.557-.009c68.797-2.246 122.417-25.158 159.368-68.1 48.598-56.477 66.162-141.396 62.748-214.401-.979-20.902-8.423-42.237-23.035-57.459-1.089-1.134-2.208-2.242-3.376-3.306-5.127-4.665-10.862-8.566-16.964-11.798-5.289-2.801-10.854-5.099-16.55-6.933-2.365-.762-4.732-1.338-7.096-1.762-3.281-.589-6.555-.875-9.811-.875-24.122 0-47.247 15.161-64.911 30.646-18.24 15.992-36.755 33.421-57.363 47.073-22.585 14.962-47.38 22.497-73.202 29.851-33.351 9.498-67.641 15.564-102.078 19.429-30.618 3.435-61.647 5.433-92.587 5.433-12.28 0-24.541-.315-36.763-.979-.709-.038-1.418-.073-2.126-.122-.394-.027-.789-.041-1.181-.041-5.256 0-10.244 2.438-13.47 6.645-3.467 4.52-4.438 10.476-2.584 15.862 13.94 40.507 38.55 76.866 73.147 108.068zm-23.799-95.589h.031c1.718.011 3.495.018 5.319.018 25.01 0 59.86-1.107 98.956-5.557 82.72-9.414 150.153-29.545 201.203-59.971 1.45-.864 3.079-1.296 4.711-1.296 1.541 0 3.083.384 4.479 1.151 29.672 16.308 75.781 40.474 108.659 52.206 4.069 1.452 6.587 5.529 6.095 9.821-3.927 34.31-15.064 77.974-44.329 111.89-29.974 34.736-74.236 53.582-131.601 56.039l-.537.012c-.744 0-1.485-.066-2.22-.195-5.781-1.021-20.042-3.771-39.179-9.039 5.455-2.409 11.098-5.297 16.801-8.518 5.106-2.885 10.256-6.028 15.354-9.318 15.771-10.173 31.043-21.723 42.925-31.227 2.749-2.197.17-6.491-3.076-5.13-25.975 10.898-59.161 18.186-88.854 22.977-9.333 1.506-18.315 2.763-26.625 3.811-9.72 1.226-18.508 2.161-25.841 2.861-1.911-.843-3.827-1.699-5.75-2.581-16.525-7.57-31.943-15.86-46.199-24.798 6.222-.576 12.76-1.608 19.391-2.957 6.024-1.226 12.117-2.71 18.114-4.339 17.659-4.796 34.451-10.852 45.937-15.312 2.186-.849 1.407-4.11-.928-3.886-20.907 2.012-49.906 2.197-74.67 1.833-8.112-.119-15.767-.297-22.536-.489-8.902-.253-16.264-.528-21.108-.728-2.841-2.377-5.625-4.782-8.326-7.227-3.495-3.163-6.861-6.389-10.119-9.666 5.027-.51 10.246-1.31 15.546-2.324 4.956-.949 9.976-2.083 14.969-3.344 19.719-4.976 38.959-11.876 51.687-16.817 2.186-.85 1.407-4.111-.928-3.887-19.628 1.89-46.387 2.168-70.079 1.894-5.844-.068-11.499-.168-16.816-.287-5.917-.132-11.414-.286-16.278-.44-6.884-9.15-12.967-18.648-18.219-28.478-1.621-3.031.608-6.702 4.041-6.702z"/><circle cx="621.247" cy="619.725" r="40.132"/><circle cx="534.692" cy="711.631" r="20.275"/><circle cx="644.636" cy="706.954" r="20.275"/></symbol>
			<symbol id="parked" xmlns="http://www.w3.org/2000/svg" viewBox="0 0 272.523 272.523"><path d="M193.26 118.059c-.877 0-1.777.126-2.677.373l-10.172 2.802-10.561-25.73c-2.993-7.289-11.838-13.22-19.717-13.22h-98.85c-7.88 0-16.724 5.931-19.716 13.22l-10.548 25.694-10.046-2.767c-.899-.247-1.799-.373-2.676-.373-4.808 0-8.297 3.673-8.297 8.732v5.996c0 5.906 4.806 10.712 10.712 10.712h1.151l-1.705 4.153c-2.78 6.77-5.043 18.236-5.043 25.558v51.115c0 5.906 4.806 10.712 10.712 10.712h13.99c5.906 0 10.712-4.806 10.712-10.712v-12.764h120.357v12.764c0 5.906 4.806 10.712 10.712 10.712h13.988c5.906 0 10.712-4.806 10.712-10.712v-51.114c0-7.321-2.263-18.787-5.043-25.558l-1.705-4.153h1.294c5.906 0 10.712-4.806 10.712-10.712v-5.996c.001-5.059-3.489-8.732-8.296-8.732zm-164.562 19.622l15.978-38.918c1.79-4.36 7.11-7.928 11.823-7.928h88.418c4.713 0 10.033 3.567 11.823 7.928l15.978 38.918c1.789 4.36-.602 7.928-5.315 7.928h-133.389c-4.714-.001-7.105-3.568-5.316-7.928zm35.667 49.227c0 2.357-1.929 4.284-4.284 4.284h-30.352c-2.357 0-4.285-1.928-4.285-4.284v-14.566c0-2.356 1.928-4.284 4.285-4.284h30.352c2.355 0 4.284 1.928 4.284 4.284v14.566zm111.319 0c0 2.357-1.929 4.284-4.284 4.284h-30.352c-2.355 0-4.284-1.928-4.284-4.284v-14.566c0-2.356 1.929-4.284 4.284-4.284h30.352c2.355 0 4.284 1.928 4.284 4.284v14.566zM259.125 37.486h-50.735c-7.388 0-13.398 6.011-13.398 13.398v50.736c0 7.388 6.011 13.399 13.398 13.399h20.367v113.872c0 2.762 2.238 5 5 5s5-2.238 5-5v-113.871h20.368c7.388 0 13.398-6.011 13.398-13.399v-50.736c0-7.388-6.01-13.399-13.398-13.399zm-11.491 42.067c-2.918 2.627-7.216 3.959-12.774 3.959h-7.347c-.882 0-1.6.719-1.6 1.601v12.389c0 1.346-1.095 2.44-2.441 2.44h-5.564c-1.347 0-2.441-1.095-2.441-2.44v-42.495c0-1.347 1.095-2.442 2.441-2.442h14.016c9.285 0 12.751 1.399 15.599 3.816 3.004 2.549 4.526 6.453 4.526 11.606-.001 5.035-1.485 8.925-4.415 11.566zM239.681 62.825c-1.356-1.024-3.755-1.544-7.129-1.544h-5.039c-.882 0-1.6.718-1.6 1.599v10.182c0 .881.718 1.599 1.6 1.599h3.019c1.109 0 2.901-.082 3.994-.183 1.061-.097 4.056-.531 5.155-1.361 1.319-.998 1.988-2.724 1.988-5.129 0-2.428-.669-4.165-1.988-5.163z"/></symbol>
			<symbol id="manager" xmlns="http://www.w3.org/2000/svg" viewBox="0 0 297 297"><path d="M148.51 117.216c32.317 0 58.608-26.291 58.608-58.608s-26.291-58.608-58.608-58.608c-32.317 0-58.608 26.291-58.608 58.608s26.291 58.608 58.608 58.608zM227.154 145.618l-.098-.032c-7.631-1.864-30.999-5.133-30.999-5.133-2.638-.812-5.457.585-6.406 3.188l-35.174 96.509c-2.029 5.567-9.903 5.567-11.932 0l-35.174-96.509c-.766-2.102-2.75-3.42-4.876-3.42-.504 0-24.531 3.369-32.53 5.358-21.858 5.435-35.645 26.929-35.645 49.329v80.302c0 12.034 9.756 21.79 21.79 21.79h184.782c12.034 0 21.79-9.756 21.79-21.79v-80.569c-.001-22.303-14.328-42.096-35.528-49.023zM161.775 138.613c-1.404-1.53-3.456-2.299-5.532-2.299h-15.485c-2.076 0-4.129.77-5.532 2.299-2.173 2.368-2.489 5.789-.946 8.462l8.278 12.479-3.875 32.69 7.631 20.3c.744 2.042 3.631 2.042 4.375 0l7.631-20.3-3.875-32.69 8.278-12.479c1.541-2.673 1.225-6.094-.948-8.462z"/></symbol>
			<symbol id="air" xmlns="http://www.w3.org/2000/svg" viewBox="0 0 455 455"><path d="M425.17 67.167h-395.34c-16.448 0-29.83 13.382-29.83 29.83v152.67c0 4.142 3.357 7.5 7.5 7.5h440c4.143 0 7.5-3.358 7.5-7.5v-152.67c0-16.448-13.382-29.83-29.83-29.83zm-392.67 15h390v9.51c0 4.957-4.033 8.99-8.99 8.99h-372.02c-4.957 0-8.99-4.033-8.99-8.99v-9.51zm390 122.5h-390v-1.01c0-4.957 4.033-8.99 8.99-8.99h372.02c4.957 0 8.99 4.033 8.99 8.99v1.01zm-390 10h390v10h-390v-10zm0 20h390v7.5h-390v-7.5zm407.5 7.5h-7.5v-38.51c0-10.471-8.519-18.99-18.99-18.99h-372.02c-10.472 0-18.99 8.519-18.99 18.99v38.51h-7.5v-145.17c0-5.51 3.027-10.319 7.5-12.875v7.555c0 10.471 8.519 18.99 18.99 18.99h372.02c10.472 0 18.99-8.519 18.99-18.99v-7.555c4.473 2.556 7.5 7.365 7.5 12.875v145.17zM250.5 164.667h-46c-2.762 0-5 2.239-5 5s2.238 5 5 5h46c2.762 0 5-2.239 5-5s-2.238-5-5-5zM401.503 164.668c-1.32 0-2.61.53-3.54 1.46s-1.46 2.22-1.46 3.54.53 2.61 1.46 3.53c.93.94 2.22 1.47 3.54 1.47 1.31 0 2.6-.53 3.53-1.47.93-.93 1.47-2.22 1.47-3.53s-.54-2.6-1.47-3.54c-.93-.93-2.22-1.46-3.53-1.46zM378.503 164.668c-1.32 0-2.61.53-3.54 1.46s-1.46 2.22-1.46 3.54.53 2.6 1.46 3.53c.93.93 2.22 1.47 3.54 1.47 1.31 0 2.6-.54 3.53-1.47.93-.93 1.47-2.22 1.47-3.53 0-1.32-.54-2.61-1.47-3.54-.93-.93-2.22-1.46-3.53-1.46zM186.319 289.942c1.351-2.409.493-5.456-1.916-6.807-2.407-1.352-5.456-.493-6.807 1.915-9.09 16.21-9.091 36.35-.001 52.561 7.396 13.192 7.396 29.583 0 42.776-1.351 2.409-.492 5.456 1.916 6.807.773.434 1.612.64 2.44.64 1.75 0 3.449-.92 4.366-2.556 9.088-16.209 9.088-36.348 0-52.557-7.397-13.195-7.396-29.586.002-42.779zM231.862 289.942c1.351-2.409.493-5.456-1.916-6.807-2.407-1.352-5.456-.493-6.807 1.915-9.09 16.21-9.091 36.35-.001 52.561 7.396 13.192 7.396 29.583 0 42.776-1.351 2.409-.492 5.456 1.916 6.807.773.434 1.612.64 2.44.64 1.75 0 3.449-.92 4.366-2.556 9.088-16.209 9.088-36.348 0-52.557-7.397-13.195-7.396-29.586.002-42.779zM277.406 289.942c1.351-2.409.493-5.456-1.916-6.807-2.408-1.352-5.456-.493-6.807 1.915-9.091 16.21-9.091 36.35-.002 52.561 7.397 13.193 7.397 29.583 0 42.776-1.351 2.408-.493 5.456 1.916 6.807.773.434 1.612.64 2.44.64 1.75 0 3.449-.92 4.366-2.556 9.089-16.209 9.089-36.348 0-52.557-7.396-13.194-7.396-29.586.003-42.779z"/></symbol>
			<symbol id="monitor" viewBox="0 -22 512.00002 512" xmlns="http://www.w3.org/2000/svg"><path d="M463.285 0h-337.055c-4.199 0-7.605 3.406-7.605 7.605s3.406 7.602 7.605 7.602h337.055c18.477 0 33.508 15.031 33.508 33.504v270.59c0 18.477-15.031 33.504-33.508 33.504h-414.574c-18.473 0-33.504-15.027-33.504-33.504v-270.59c0-18.473 15.031-33.504 33.504-33.504h47.102c4.199 0 7.605-3.402 7.605-7.602s-3.406-7.605-7.605-7.605h-47.102c-26.859 0-48.711 21.852-48.711 48.711v270.59c0 26.859 21.852 48.711 48.711 48.711h122.273l-14.895 48.668h-27.922c-14.258 0-25.852 11.598-25.852 25.852 0 14.258 11.594 25.852 25.852 25.852h255.664c14.254 0 25.852-11.594 25.852-25.852 0-14.254-11.598-25.852-25.852-25.852h-27.922l-14.895-48.668h122.27c26.863 0 48.715-21.852 48.715-48.711v-270.59c0-26.859-21.852-48.711-48.715-48.711zm-68.809 442.535c0 5.867-4.777 10.645-10.645 10.645h-255.664c-5.871 0-10.645-4.777-10.645-10.645 0-5.871 4.773-10.645 10.645-10.645h255.664c5.867 0 10.645 4.773 10.645 10.645zm-54.473-25.855h-168.008l14.891-48.664h138.227zm0 0M463.844 247.531c4.203 0 7.605-3.406 7.605-7.605v-191.211c0-4.504-3.66-8.164-8.164-8.164h-414.578c-4.492 0-8.148 3.66-8.148 8.164v247.828c0 4.199 3.402 7.602 7.602 7.602h415.684c4.203 0 7.605-3.402 7.605-7.602v-26.199c0-4.199-3.402-7.602-7.605-7.602-4.199 0-7.602 3.402-7.602 7.602v18.594h-400.477v-233.18h400.477v184.168c0 4.203 3.402 7.605 7.602 7.605zm0 0M262.32 322.895c-1.664-2.531-4.844-3.828-7.809-3.234-3.242.648-5.762 3.422-6.074 6.719-.656 6.875 7.844 11.012 12.832 6.223 2.633-2.531 3.055-6.668 1.051-9.707zm0 0"/></symbol>
			<symbol id="call" xmlns="http://www.w3.org/2000/svg" viewBox="0 0 512.076 512.076"><path d="M498.639 395.039l-103.646-69.12c-13.153-8.701-30.784-5.838-40.508 6.579l-30.191 38.818c-3.88 5.116-10.933 6.6-16.546 3.482l-5.743-3.166c-19.038-10.377-42.726-23.296-90.453-71.04s-60.672-71.45-71.049-90.453l-3.149-5.743c-3.161-5.612-1.705-12.695 3.413-16.606l38.792-30.182c12.412-9.725 15.279-27.351 6.588-40.508l-69.12-103.646c-8.907-13.398-26.777-17.42-40.566-9.131l-43.341 26.035c-13.618 8.006-23.609 20.972-27.878 36.181-15.607 56.866-3.866 155.008 140.706 299.597 115.004 114.995 200.619 145.92 259.465 145.92 13.543.058 27.033-1.704 40.107-5.239 15.212-4.264 28.18-14.256 36.181-27.878l26.061-43.315c8.301-13.792 4.281-31.673-9.123-40.585zm-5.581 31.829l-26.001 43.341c-5.745 9.832-15.072 17.061-26.027 20.173-52.497 14.413-144.213 2.475-283.008-136.32s-150.732-230.503-136.319-283.008c3.116-10.968 10.354-20.307 20.198-26.061l43.341-26.001c5.983-3.6 13.739-1.855 17.604 3.959l37.547 56.371 31.514 47.266c3.774 5.707 2.534 13.356-2.85 17.579l-38.801 30.182c-11.808 9.029-15.18 25.366-7.91 38.332l3.081 5.598c10.906 20.002 24.465 44.885 73.967 94.379 49.502 49.493 74.377 63.053 94.37 73.958l5.606 3.089c12.965 7.269 29.303 3.898 38.332-7.91l30.182-38.801c4.224-5.381 11.87-6.62 17.579-2.85l103.637 69.12c5.818 3.862 7.563 11.622 3.958 17.604zM290.161 85.39c80.081.089 144.977 64.986 145.067 145.067 0 4.713 3.82 8.533 8.533 8.533s8.533-3.82 8.533-8.533c-.099-89.503-72.63-162.035-162.133-162.133-4.713 0-8.533 3.82-8.533 8.533s3.82 8.533 8.533 8.533zM290.161 136.59c51.816.061 93.806 42.051 93.867 93.867 0 4.713 3.821 8.533 8.533 8.533 4.713 0 8.533-3.82 8.533-8.533-.071-61.238-49.696-110.863-110.933-110.933-4.713 0-8.533 3.82-8.533 8.533s3.82 8.533 8.533 8.533zM290.161 187.79c23.552.028 42.638 19.114 42.667 42.667 0 4.713 3.821 8.533 8.533 8.533s8.533-3.82 8.533-8.533c-.038-32.974-26.759-59.696-59.733-59.733-4.713 0-8.533 3.82-8.533 8.533s3.82 8.533 8.533 8.533z"/></symbol>
			<symbol id="safe-box" viewBox="0 -44 512 512" xmlns="http://www.w3.org/2000/svg"><path d="M479.281 0h-446.563c-18.043 0-32.719 14.676-32.719 32.719v314.578c0 16.621 12.461 30.379 28.531 32.441v26.141c0 10.289 8.371 18.66 18.664 18.66h33.07c7.32 0 13.996-4.313 17.008-10.984l15.145-33.539h287.164l15.145 33.539c3.012 6.672 9.688 10.984 17.008 10.984h33.07c10.293 0 18.664-8.371 18.664-18.66v-26.141c16.07-2.063 28.531-15.82 28.531-32.441v-314.578c0-18.043-14.676-32.719-32.719-32.719zm-395.676 407.383c-.594 1.313-1.902 2.156-3.34 2.156h-33.07c-2.02 0-3.664-1.645-3.664-3.66v-25.863h52.43zm381.199 2.156h-33.07c-1.438 0-2.746-.844-3.336-2.152l-12.359-27.371h52.43v25.863c0 2.02-1.645 3.66-3.664 3.66zm32.195-62.242c0 9.77-7.945 17.719-17.719 17.719h-446.56300000000005c-9.773 0-17.719-7.949-17.719-17.719v-314.578c0-9.773 7.945-17.719 17.719-17.719h446.563c9.773 0 17.719 7.945 17.719 17.719zm0 0M455.863 38.906h-399.727c-9.5 0-17.23 7.73-17.23 17.23v267.742c0 9.5 7.73 17.23 17.23 17.23h266.113c4.145 0 7.5-3.359 7.5-7.5 0-4.145-3.355-7.5-7.5-7.5h-266.113c-1.23 0-2.23-1-2.23-2.23v-267.742c0-1.23 1-2.23 2.23-2.23h399.727c1.23 0 2.23 1 2.23 2.23v267.742c0 1.23-1 2.227-2.23 2.227h-105.613c-4.145 0-7.5 3.359-7.5 7.5 0 4.145 3.355 7.5 7.5 7.5h105.613c9.5 0 17.23-7.727 17.23-17.227v-267.742c0-9.5-7.73-17.23-17.23-17.23zm0 0M315.813 154.711h16.43c13.434 0 24.359-10.93 24.359-24.363 0-13.43-10.93-24.359-24.359-24.359h-16.43c-13.43 0-24.359 10.93-24.359 24.359 0 13.434 10.93 24.363 24.359 24.363zm0-33.723h16.43c5.16 0 9.359 4.199 9.359 9.359 0 5.164-4.199 9.363-9.359 9.363h-16.43c-5.16 0-9.359-4.199-9.359-9.363 0-5.16 4.199-9.359 9.359-9.359zm0 0M391.898 154.711h16.426c13.434 0 24.359-10.93 24.359-24.363 0-13.43-10.926-24.359-24.359-24.359h-16.426c-13.434 0-24.359 10.93-24.359 24.359 0 13.434 10.926 24.363 24.359 24.363zm0-33.723h16.426c5.164 0 9.359 4.199 9.359 9.359 0 5.164-4.195 9.363-9.359 9.363h-16.426c-5.16 0-9.359-4.199-9.359-9.363 0-5.16 4.199-9.359 9.359-9.359zm0 0M315.813 214.367h16.43c13.434 0 24.359-10.926 24.359-24.359 0-13.434-10.93-24.359-24.359-24.359h-16.43c-13.43 0-24.359 10.926-24.359 24.359 0 13.434 10.93 24.359 24.359 24.359zm0-33.719h16.43c5.16 0 9.359 4.199 9.359 9.359s-4.199 9.359-9.359 9.359h-16.43c-5.16 0-9.359-4.199-9.359-9.359s4.199-9.359 9.359-9.359zm0 0M391.898 214.367h16.426c13.434 0 24.359-10.926 24.359-24.359 0-13.434-10.926-24.359-24.359-24.359h-16.426c-13.434 0-24.359 10.926-24.359 24.359 0 13.434 10.926 24.359 24.359 24.359zm0-33.719h16.426c5.164 0 9.359 4.199 9.359 9.359s-4.195 9.359-9.359 9.359h-16.426c-5.16 0-9.359-4.199-9.359-9.359s4.199-9.359 9.359-9.359zm0 0M315.813 274.023h16.43c13.434 0 24.359-10.926 24.359-24.359 0-13.43-10.93-24.359-24.359-24.359h-16.43c-13.43 0-24.359 10.93-24.359 24.359 0 13.434 10.93 24.359 24.359 24.359zm0-33.719h16.43c5.16 0 9.359 4.199 9.359 9.359s-4.199 9.359-9.359 9.359h-16.43c-5.16 0-9.359-4.199-9.359-9.359s4.199-9.359 9.359-9.359zm0 0M391.898 274.023h16.426c13.434 0 24.359-10.926 24.359-24.359 0-13.43-10.926-24.359-24.359-24.359h-16.426c-13.434 0-24.359 10.93-24.359 24.359 0 13.434 10.926 24.359 24.359 24.359zm0-33.719h16.426c5.164 0 9.359 4.199 9.359 9.359s-4.195 9.359-9.359 9.359h-16.426c-5.16 0-9.359-4.199-9.359-9.359s4.199-9.359 9.359-9.359zm0 0M234.152 139.734c1.988 2.402 3.848 4.938 5.531 7.547 2.246 3.48 6.891 4.48 10.371 2.234 3.477-2.246 4.48-6.891 2.234-10.371-2.145-3.32-4.523-6.539-7.07-9.57-1.715-2.043-3.531-4.02-5.418-5.914l-.086-.094-.09-.078c-1.898-1.895-3.875-3.707-5.918-5.426-14.875-12.516-32.957-20.004-52.262-21.652-2.598-.23-5.277-.348-7.949-.352l-.223-.012-.219.012c-2.676.004-5.34.121-7.914.348-19.34 1.652-37.426 9.145-52.301 21.652-2.059 1.734-4.039 3.551-5.926 5.438l-.082.07-.031.035c-1.926 1.926-3.754 3.926-5.469 5.977-12.523 14.871-20.016 32.953-21.664 52.27-.238 2.672-.359 5.422-.359 8.164s.121 5.488.355 8.137c1.652 19.336 9.145 37.418 21.648 52.281 3.457 4.125 7.336 8.008 11.527 11.531 14.875 12.512 32.961 20 52.273 21.648 2.684.238 5.43.359 8.164.359s5.48-.121 8.137-.355c19.336-1.652 37.418-9.141 52.289-21.652 4.133-3.477 8.008-7.348 11.527-11.52 12.512-14.895 19.996-32.977 21.648-52.266.234-2.684.355-5.43.355-8.164 0-2.738-.121-5.484-.355-8.141-.434-5.066-1.285-10.125-2.527-15.027-1.02-4.016-5.094-6.445-9.113-5.43-4.016 1.02-6.445 5.102-5.426 9.113.988 3.906 1.672 7.926 2.051 11.98h-25.742c-1.289-9.125-4.883-17.516-10.188-24.559zm-60.879 88.66c-21.164 0-38.387-17.223-38.387-38.387 0-21.168 17.223-38.387 38.387-38.387 21.168 0 38.387 17.219 38.387 38.387 0 21.164-17.219 38.387-38.387 38.387zm50.273-99.266l-18.215 18.215c-7.043-5.301-15.434-8.898-24.555-10.188v-25.738c15.773 1.477 30.535 7.59 42.77 17.711zm-57.773-17.707v25.734c-9.121 1.289-17.512 4.887-24.555 10.188l-18.215-18.215c12.223-10.113 26.973-16.223 42.77-17.707zm-53.371 28.32l18.211 18.207c-5.305 7.043-8.898 15.434-10.188 24.559h-25.746c1.477-15.773 7.59-30.523 17.723-42.766zm-17.723 57.766h25.746c1.289 9.125 4.883 17.516 10.188 24.555l-18.219 18.219c-10.121-12.227-16.23-26.977-17.715-42.773zm28.32 53.379l18.219-18.215c7.043 5.301 15.434 8.895 24.559 10.184v25.746c-15.785-1.48-30.547-7.59-42.777-17.715zm57.773 17.715v-25.746c9.125-1.289 17.516-4.883 24.555-10.188l18.223 18.219c-12.23 10.121-26.98 16.23-42.777 17.715zm53.387-28.316l-18.223-18.223c5.305-7.039 8.898-15.43 10.188-24.555h25.746c-1.477 15.766-7.59 30.531-17.711 42.777zm0 0"/></symbol>
			<symbol id="price-tag" xmlns="http://www.w3.org/2000/svg" viewBox="0 0 59.998 59.998"><path d="M59.206.293c-.391-.391-1.023-.391-1.414 0l-3.707 3.707h-23.283l-29.27 29.511c-.666.666-1.033 1.553-1.033 2.495s.367 1.829 1.033 2.495l20.466 20.466c.687.687 1.588 1.031 2.491 1.031.907 0 1.814-.347 2.509-1.041l28.501-29.271v-24.272l3.707-3.707c.391-.391.391-1.023 0-1.414zm-5.707 28.581l-27.925 28.679c-.596.596-1.566.596-2.162 0l-20.466-20.466c-.596-.596-.596-1.566.003-2.165l28.687-28.922h20.449l-4.833 4.833c-.791-.524-1.736-.833-2.753-.833-2.757 0-5 2.243-5 5s2.243 5 5 5 5-2.243 5-5c0-1.017-.309-1.962-.833-2.753l4.833-4.833v21.46zm-6-13.874c0 1.654-1.346 3-3 3s-3-1.346-3-3 1.346-3 3-3c.462 0 .894.114 1.285.301l-1.992 1.992c-.391.391-.391 1.023 0 1.414.195.195.451.293.707.293s.512-.098.707-.293l1.992-1.992c.188.391.301.823.301 1.285z"/></symbol>
			<symbol id="wifi" xmlns="http://www.w3.org/2000/svg" viewBox="0 0 54.908 54.908"><path d="M54.615 19.123c-7.243-7.244-16.89-11.233-27.161-11.233s-19.917 3.988-27.161 11.233c-.391.391-.391 1.023 0 1.414s1.023.391 1.414 0c6.866-6.867 16.01-10.648 25.747-10.648s18.881 3.781 25.747 10.647c.195.195.451.293.707.293s.512-.098.707-.293c.391-.39.391-1.023 0-1.413zM6.171 25c-.391.391-.391 1.023 0 1.414.195.195.451.293.707.293s.512-.098.707-.293c10.955-10.956 28.781-10.956 39.737 0 .391.391 1.023.391 1.414 0s.391-1.023 0-1.414c-11.734-11.734-30.829-11.736-42.565 0zM27.454 24.508c-5.825 0-11.295 2.263-15.404 6.371-.391.391-.391 1.023 0 1.414s1.023.391 1.414 0c3.731-3.73 8.699-5.785 13.99-5.785s10.259 2.055 13.99 5.785c.195.195.451.293.707.293s.512-.098.707-.293c.391-.391.391-1.023 0-1.414-4.108-4.108-9.579-6.371-15.404-6.371zM27.454 33.916c-3.612 0-6.551 2.939-6.551 6.552s2.939 6.552 6.551 6.552c3.613 0 6.552-2.939 6.552-6.552s-2.939-6.552-6.552-6.552zm0 11.103c-2.51 0-4.551-2.042-4.551-4.552s2.042-4.552 4.551-4.552 4.552 2.042 4.552 4.552-2.042 4.552-4.552 4.552z"/></symbol>
		 </defs>
	 </svg>